<svg width="24" height="24" viewBox="0 0 24 24" fill="none" xmlns="http://www.w3.org/2000/svg">
<path d="M11.1437 17.8824H4.67114" stroke="#657786" stroke-width="1.5" stroke-linecap="round" stroke-linejoin="round"/>
<path fill-rule="evenodd" clip-rule="evenodd" d="M15.205 17.8834C15.205 19.9252 15.8859 20.6052 17.9267 20.6052C19.9676 20.6052 20.6485 19.9252 20.6485 17.8834C20.6485 15.8416 19.9676 15.1616 17.9267 15.1616C15.8859 15.1616 15.205 15.8416 15.205 17.8834Z" stroke="#657786" stroke-width="1.5" stroke-linecap="round" stroke-linejoin="round"/>
<path d="M14.1766 7.39415H20.6482" stroke="#657786" stroke-width="1.5" stroke-linecap="round" stroke-linejoin="round"/>
<path fill-rule="evenodd" clip-rule="evenodd" d="M10.1153 7.39269C10.1153 5.35179 9.43436 4.6709 7.39346 4.6709C5.35167 4.6709 4.67078 5.35179 4.67078 7.39269C4.67078 9.43448 5.35167 10.1145 7.39346 10.1145C9.43436 10.1145 10.1153 9.43448 10.1153 7.39269Z" stroke="#657786" stroke-width="1.5" stroke-linecap="round" stroke-linejoin="round"/>
</svg>
