<svg width="21" height="20" viewBox="0 0 21 20" fill="none" xmlns="http://www.w3.org/2000/svg">
<g clip-path="url(#clip0_8105_192253)">
<path d="M14.0625 18.6128H7.57731C4.26188 18.6128 2.20215 16.5575 2.20215 13.2486V6.74878C2.20215 3.19206 3.78418 1.38867 6.9043 1.38867H8.57097C8.9631 1.3896 9.34967 1.48147 9.70029 1.65706C10.0509 1.83265 10.356 2.08718 10.5916 2.40064L11.3517 3.41056C11.4713 3.5689 11.6258 3.69745 11.8032 3.78618C11.9807 3.8749 12.1763 3.9214 12.3747 3.92204H14.7322C17.9508 3.92204 19.4499 5.57081 19.4499 9.11121L19.4263 13.2506C19.4255 16.5584 17.3698 18.6128 14.0625 18.6128ZM6.9043 2.63867C4.48487 2.63867 3.45215 3.86792 3.45215 6.74878V13.2486C3.45215 15.9016 4.91699 17.3628 7.57731 17.3628H14.0625C16.7155 17.3628 18.1763 15.9016 18.1763 13.2486V13.2449L18.1999 9.10756C18.1999 6.27634 17.2274 5.17201 14.7323 5.17201H12.3739C11.9819 5.17059 11.5955 5.07868 11.2449 4.90343C10.8942 4.72818 10.5888 4.47434 10.3524 4.16167L9.59147 3.15011C9.47237 2.9917 9.31816 2.86306 9.14094 2.77432C8.96373 2.68557 8.76834 2.63914 8.57015 2.63867H6.9043Z" fill="#393A3D"/>
<path d="M14.4651 11.8379H7.18652C7.02076 11.8379 6.86179 11.772 6.74458 11.6548C6.62737 11.5376 6.56152 11.3787 6.56152 11.2129C6.56152 11.0471 6.62737 10.8882 6.74458 10.7709C6.86179 10.6537 7.02076 10.5879 7.18652 10.5879H14.4652C14.6309 10.5879 14.7899 10.6537 14.9071 10.7709C15.0243 10.8882 15.0902 11.0471 15.0902 11.2129C15.0902 11.3787 15.0243 11.5376 14.9071 11.6548C14.7899 11.772 14.6309 11.8379 14.4652 11.8379H14.4651Z" fill="#393A3D"/>
</g>
<defs>
<clipPath id="clip0_8105_192253">
<rect width="20" height="20" fill="white" transform="translate(0.826172)"/>
</clipPath>
</defs>
</svg>
