<svg width="19" height="19" viewBox="0 0 13 19" fill="none" xmlns="http://www.w3.org/2000/svg">
<path d="M2.21511 2.21511C2.98678 1.44344 3.95874 0.902758 5.02133 0.65407C6.08393 0.405382 7.19487 0.45858 8.22885 0.807662C9.26282 1.15674 10.1787 1.78782 10.8731 2.62969C11.5675 3.47157 12.0128 4.49074 12.1588 5.57224C12.3048 6.65373 12.1457 7.75451 11.6995 8.7504C11.2532 9.74628 10.5375 10.5976 9.63311 11.2084C8.72873 11.8192 7.67167 12.1651 6.58117 12.2071C5.49067 12.2492 4.41013 11.9856 3.46144 11.4462L5.08307 8.59409C5.50023 8.83128 5.97536 8.94717 6.45487 8.92869C6.93438 8.91022 7.39918 8.75812 7.79685 8.48954C8.19452 8.22097 8.50922 7.84662 8.70546 7.40871C8.90169 6.9708 8.97166 6.48677 8.90745 6.01122C8.84324 5.53567 8.64742 5.08753 8.34208 4.71734C8.03674 4.34715 7.63403 4.06966 7.17937 3.91616C6.72472 3.76267 6.23622 3.73928 5.76898 3.84863C5.30174 3.95798 4.87436 4.19572 4.53504 4.53504L2.21511 2.21511Z" fill="#0077FF"/>
<path d="M6.78958 16.2932C6.78958 17.509 5.80397 18.4947 4.58815 18.4947C3.37233 18.4947 2.38672 17.509 2.38672 16.2932C2.38672 15.0774 3.37233 14.0918 4.58815 14.0918C5.80397 14.0918 6.78958 15.0774 6.78958 16.2932Z" fill="#FBBC04"/>
<path opacity="0.2" d="M9.41327 16.294C9.41327 16.7423 9.04989 17.1056 8.60165 17.1056C8.15341 17.1056 7.79004 16.7423 7.79004 16.294C7.79004 15.8458 8.15341 15.4824 8.60165 15.4824C9.04989 15.4824 9.41327 15.8458 9.41327 16.294Z" fill="#0077FF"/>
<path opacity="0.2" d="M12.0363 16.294C12.0363 16.7423 11.6729 17.1056 11.2247 17.1056C10.7765 17.1056 10.4131 16.7423 10.4131 16.294C10.4131 15.8458 10.7765 15.4824 11.2247 15.4824C11.6729 15.4824 12.0363 15.8458 12.0363 16.294Z" fill="#0077FF"/>
</svg>
