<svg width="24" height="24" viewBox="0 0 24 24" fill="none" xmlns="http://www.w3.org/2000/svg">
<mask id="mask0_3331_99964" style="mask-type:luminance" maskUnits="userSpaceOnUse" x="4" y="2" width="17" height="16">
<path fill-rule="evenodd" clip-rule="evenodd" d="M4.16846 2.35645H20.3317V17.5157H4.16846V2.35645Z" fill="white"/>
</mask>
<g mask="url(#mask0_3331_99964)">
<path fill-rule="evenodd" clip-rule="evenodd" d="M12.2488 3.6672C9.19476 3.6672 7.06609 6.05976 7.06609 8.20677C7.06609 10.0235 6.56189 10.8632 6.11624 11.6042C5.75884 12.1993 5.47659 12.6694 5.47659 13.691C5.62252 15.339 6.71044 16.205 12.2488 16.205C17.7566 16.205 18.8786 15.3006 19.0236 13.6342C19.021 12.6694 18.7388 12.1993 18.3814 11.6042C17.9357 10.8632 17.4315 10.0235 17.4315 8.20677C17.4315 6.05976 15.3029 3.6672 12.2488 3.6672ZM12.2496 17.5157C8.16356 17.5157 4.47074 17.2274 4.16926 13.7469C4.16664 12.3068 4.60618 11.5745 4.99416 10.9296C5.38651 10.276 5.75615 9.65995 5.75615 8.20677C5.75615 5.38166 8.36542 2.35645 12.2496 2.35645C16.1338 2.35645 18.7431 5.38166 18.7431 8.20677C18.7431 9.65995 19.1127 10.276 19.5051 10.9296C19.893 11.5745 20.3326 12.3068 20.3326 13.691C20.0276 17.2274 16.3357 17.5157 12.2496 17.5157Z" fill="#657786"/>
</g>
<path fill-rule="evenodd" clip-rule="evenodd" d="M12.2061 21.1437H12.2043C11.2247 21.1428 10.2976 20.7111 9.59417 19.9273C9.35212 19.659 9.37397 19.244 9.64311 19.0028C9.91225 18.7599 10.3264 18.7817 10.5685 19.0517C11.0211 19.5559 11.6022 19.8329 12.2052 19.8329H12.2061C12.8116 19.8329 13.3954 19.5559 13.8489 19.0508C14.0918 18.7826 14.506 18.7607 14.7743 19.0028C15.0434 19.2448 15.0653 19.6599 14.8232 19.9282C14.1171 20.712 13.1883 21.1437 12.2061 21.1437Z" fill="#657786"/>
</svg>
