<?xml version="1.0" encoding="UTF-8"?><svg id="b" xmlns="http://www.w3.org/2000/svg" width="19" height="19" viewBox="0 0 24 24"><g id="c"><rect width="24" height="24" style="fill:none;"/><path d="M4.31,13.85h-1.54c-.43,0-.77,.35-.77,.77v4.61c0,1.27,1.03,2.31,2.31,2.31s2.31-1.03,2.31-2.31v-3.08c0-1.27-1.03-2.31-2.31-2.31h0Zm.76,5.39c-.04,.37-.33,.66-.69,.69-.42,.04-.8-.27-.84-.69v-3.85h.76c.43,0,.77,.35,.77,.77v3.08Zm16.16-5.38h-1.54c-1.27,0-2.31,1.03-2.31,2.31v3.08c0,1.27,1.03,2.31,2.31,2.31s2.31-1.03,2.31-2.31v-4.61c0-.43-.35-.77-.77-.77h0Zm-.76,5.37c-.04,.42-.42,.73-.84,.69-.37-.04-.66-.33-.69-.69v-3.08c0-.43,.35-.77,.77-.77h.76v3.85ZM10.59,4.22c-3.52,.64-6.27,3.61-6.87,7.4-.06,.4-.38,.69-.76,.69h-.12c-.42-.07-.7-.5-.63-.95C3.13,5.54,8.25,1.62,13.65,2.61c2.03,.37,3.9,1.41,5.36,2.98,1.46,1.56,2.42,3.58,2.76,5.77,.11,.44-.13,.89-.54,1.01s-.83-.14-.94-.58c-.01-.05-.02-.11-.03-.16-.77-4.92-5.1-8.23-9.67-7.4h0Zm3.63,2.87s.03,.02,.05,.03c.33,.17,.73,.02,.88-.34,.16-.36,.02-.78-.31-.95-1.9-1.04-4.15-1.04-6.06,0-.2,.12-.33,.35-.34,.6,0,.39,.27,.73,.64,.74,.1,0,.2-.03,.29-.07,1.52-.84,3.32-.84,4.84,0h.01Z" style="fill:#686868;"/></g></svg>