<svg width="19" height="19" viewBox="0 0 15 21" fill="none" xmlns="http://www.w3.org/2000/svg">
<path fill-rule="evenodd" clip-rule="evenodd" d="M7.85717 19.3557C4.47301 19.3557 1.58301 18.8291 1.58301 16.7201C1.58301 14.611 4.45467 12.6641 7.85717 12.6641C11.2413 12.6641 14.1313 14.5921 14.1313 16.7012C14.1313 18.8094 11.2597 19.3557 7.85717 19.3557Z" stroke="#686868" stroke-width="1.5" stroke-linecap="round" stroke-linejoin="round"/>
<path fill-rule="evenodd" clip-rule="evenodd" d="M7.85079 9.74172C10.0716 9.74172 11.8716 7.94172 11.8716 5.72089C11.8716 3.50005 10.0716 1.69922 7.85079 1.69922C5.62996 1.69922 3.82913 3.50005 3.82913 5.72089C3.82163 7.93422 5.60913 9.73422 7.82246 9.74172C7.83246 9.74172 7.84162 9.74172 7.85079 9.74172Z" stroke="#686868" stroke-width="1.5" stroke-linecap="round" stroke-linejoin="round"/>
</svg>
