<svg width="14" height="18" viewBox="0 0 14 18" fill="none" xmlns="http://www.w3.org/2000/svg">
<path fill-rule="evenodd" clip-rule="evenodd" d="M6.69695 17.0521C3.62044 17.0521 0.993164 16.5733 0.993164 14.656C0.993164 12.7387 3.60377 10.9688 6.69695 10.9688C9.77347 10.9688 12.4007 12.7215 12.4007 14.6389C12.4007 16.5554 9.79013 17.0521 6.69695 17.0521Z" stroke="#393A3D" stroke-width="1.25" stroke-linecap="round" stroke-linejoin="round"/>
<path fill-rule="evenodd" clip-rule="evenodd" d="M6.69124 8.31136C8.71018 8.31136 10.3465 6.675 10.3465 4.65606C10.3465 2.63712 8.71018 1 6.69124 1C4.6723 1 3.03518 2.63712 3.03518 4.65606C3.02836 6.66818 4.65336 8.30455 6.66548 8.31136C6.67457 8.31136 6.6829 8.31136 6.69124 8.31136Z" stroke="#393A3D" stroke-width="1.25" stroke-linecap="round" stroke-linejoin="round"/>
</svg>
